<svg width="24" height="24" viewBox="0 0 24 24" fill="none" xmlns="http://www.w3.org/2000/svg">
<path class="custom-fill" fill-rule="evenodd" clip-rule="evenodd" d="M21.7 20.29L18.03 16.62C19.26 15.08 20 13.13 20 11C20 6.03 15.97 2 11 2C6.03 2 2 6.03 2 11C2 15.97 6.03 20 11 20C13.13 20 15.08 19.26 16.62 18.03L20.29 21.7C20.68 22.09 21.31 22.09 21.7 21.7C22.09 21.31 22.09 20.68 21.7 20.29ZM4 11C4 7.13 7.13 4 11 4C14.87 4 18 7.13 18 11C18 12.91 17.23 14.64 15.99 15.9C15.97 15.91 15.95 15.92 15.94 15.94C15.92 15.96 15.92 15.98 15.9 15.99C14.64 17.23 12.91 18 11 18C7.13 18 4 14.87 4 11Z" fill="#262628"/>
</svg>
