<svg width="32" height="32" viewBox="0 0 32 32" fill="none" xmlns="http://www.w3.org/2000/svg">
<path fill-rule="evenodd" clip-rule="evenodd" d="M30.6549 2.58671C30.6416 2.46671 30.6282 2.36004 30.5882 2.24004C30.5749 2.20004 30.5616 2.14671 30.5349 2.10671C30.4682 1.96004 30.3882 1.82671 30.2816 1.72004C30.1749 1.61337 30.0416 1.53337 29.8949 1.46671C29.8416 1.44004 29.8016 1.42671 29.7482 1.41337C29.6549 1.38671 29.5482 1.36004 29.4549 1.36004C29.4016 1.34671 29.3482 1.33337 29.2816 1.33337C29.1482 1.33337 29.0149 1.36004 28.8949 1.41337H28.8816C28.8549 1.42671 28.8416 1.42671 28.8149 1.44004L2.22823 10.7467C1.70823 10.92 1.36156 11.4 1.33489 11.9467C1.30823 12.4934 1.62823 13 2.12156 13.2134L13.6816 18.3467L18.8016 29.88C19.0149 30.3734 19.5216 30.6934 20.0682 30.6667C20.6149 30.64 21.0816 30.2934 21.2682 29.7734L30.6016 3.10671C30.6416 2.97337 30.6682 2.82671 30.6682 2.69337C30.6682 2.65337 30.6549 2.61337 30.6549 2.58671ZM24.2416 5.88004L14.3749 15.7467L6.28156 12.1467L24.2416 5.88004ZM19.8682 25.7334L16.2549 17.6267L26.1749 7.70671L19.8682 25.7334Z" fill="#262628"/>
</svg>
