<svg width="24" height="24" viewBox="0 0 24 24" fill="none" xmlns="http://www.w3.org/2000/svg">
<path fill-rule="evenodd" clip-rule="evenodd" d="M12 1C5.92 1 1 5.92 1 12C1 18.08 5.92 23 12 23C18.08 23 23 18.08 23 12C23 5.92 18.08 1 12 1ZM12 21C7.03 21 3 16.97 3 12C3 7.03 7.03 3 12 3C16.97 3 21 7.03 21 12C21 16.97 16.97 21 12 21ZM17 12C17 12.55 16.55 13 16 13H13V16C13 16.55 12.55 17 12 17C11.45 17 11 16.55 11 16V13H8C7.45 13 7 12.55 7 12C7 11.45 7.45 11 8 11H11V8C11 7.45 11.45 7 12 7C12.55 7 13 7.45 13 8V11H16C16.55 11 17 11.45 17 12Z" fill="#262628"/>
</svg>
