<svg width="18" height="18" viewBox="0 0 18 18" fill="none" xmlns="http://www.w3.org/2000/svg">
<g clip-path="url(#clip0_14_32757)">
<path fill-rule="evenodd" clip-rule="evenodd" d="M8.25 7.5C8.05109 7.5 7.86032 7.57902 7.71967 7.71967C7.57902 7.86032 7.5 8.05109 7.5 8.25V15C7.5 15.1989 7.57902 15.3897 7.71967 15.5303C7.86032 15.671 8.05109 15.75 8.25 15.75H15C15.1989 15.75 15.3897 15.671 15.5303 15.5303C15.671 15.3897 15.75 15.1989 15.75 15V8.25C15.75 8.05109 15.671 7.86032 15.5303 7.71967C15.3897 7.57902 15.1989 7.5 15 7.5H8.25ZM6 8.25C6 7.65326 6.23705 7.08097 6.65901 6.65901C7.08097 6.23705 7.65326 6 8.25 6H15C15.5967 6 16.169 6.23705 16.591 6.65901C17.0129 7.08097 17.25 7.65326 17.25 8.25V15C17.25 15.5967 17.0129 16.169 16.591 16.591C16.169 17.0129 15.5967 17.25 15 17.25H8.25C7.65326 17.25 7.08097 17.0129 6.65901 16.591C6.23705 16.169 6 15.5967 6 15V8.25ZM3 2.25C2.80109 2.25 2.61032 2.32902 2.46967 2.46967C2.32902 2.61032 2.25 2.80109 2.25 3V9.75C2.25 9.94891 2.32902 10.1397 2.46967 10.2803C2.61032 10.421 2.80109 10.5 3 10.5H3.75C3.94891 10.5 4.13968 10.579 4.28033 10.7197C4.42098 10.8603 4.5 11.0511 4.5 11.25C4.5 11.4489 4.42098 11.6397 4.28033 11.7803C4.13968 11.921 3.94891 12 3.75 12H3C2.40326 12 1.83097 11.7629 1.40901 11.341C0.987053 10.919 0.75 10.3467 0.75 9.75V3C0.75 2.40326 0.987053 1.83097 1.40901 1.40901C1.83097 0.987053 2.40326 0.75 3 0.75H9.75C10.3467 0.75 10.919 0.987053 11.341 1.40901C11.7629 1.83097 12 2.40326 12 3V3.75C12 3.94891 11.921 4.13968 11.7803 4.28033C11.6397 4.42098 11.4489 4.5 11.25 4.5C11.0511 4.5 10.8603 4.42098 10.7197 4.28033C10.579 4.13968 10.5 3.94891 10.5 3.75V3C10.5 2.80109 10.421 2.61032 10.2803 2.46967C10.1397 2.32902 9.94891 2.25 9.75 2.25H3Z" fill="#262628"/>
</g>
<defs>
<clipPath id="clip0_14_32757">
<rect width="18" height="18" fill="white"/>
</clipPath>
</defs>
</svg>
