<svg width="24" height="24" viewBox="0 0 24 24" fill="none" xmlns="http://www.w3.org/2000/svg">
<path fill-rule="evenodd" clip-rule="evenodd" d="M18.7102 17.2902C18.8985 17.4785 19.0043 17.7339 19.0043 18.0002C19.0043 18.2665 18.8985 18.5219 18.7102 18.7102C18.5219 18.8985 18.2665 19.0043 18.0002 19.0043C17.7339 19.0043 17.4785 18.8985 17.2902 18.7102L12.0002 13.4102L6.71019 18.7102C6.52188 18.8985 6.26649 19.0043 6.00019 19.0043C5.73388 19.0043 5.47849 18.8985 5.29019 18.7102C5.10188 18.5219 4.99609 18.2665 4.99609 18.0002C4.99609 17.7339 5.10188 17.4785 5.29019 17.2902L10.5902 12.0002L5.29019 6.71019C5.10188 6.52188 4.99609 6.26649 4.99609 6.00019C4.99609 5.73388 5.10188 5.47849 5.29019 5.29019C5.47849 5.10188 5.73388 4.99609 6.00019 4.99609C6.26649 4.99609 6.52188 5.10188 6.71019 5.29019L12.0002 10.5902L17.2902 5.29019C17.4785 5.10188 17.7339 4.99609 18.0002 4.99609C18.2665 4.99609 18.5219 5.10188 18.7102 5.29019C18.8985 5.47849 19.0043 5.73388 19.0043 6.00019C19.0043 6.26649 18.8985 6.52188 18.7102 6.71019L13.4102 12.0002L18.7102 17.2902Z" fill="#262628"/>
</svg>
