<svg width="18" height="18" viewBox="0 0 18 18" fill="none" xmlns="http://www.w3.org/2000/svg">
<path d="M15.75 16.5H2.25C1.65326 16.5 1.08097 16.263 0.65901 15.841C0.237053 15.419 0 14.8467 0 14.25L0 6C0 5.40327 0.237053 4.83097 0.65901 4.40901C1.08097 3.98706 1.65326 3.75 2.25 3.75H4.84875L6.12375 1.83375C6.19247 1.73075 6.28563 1.64636 6.3949 1.58813C6.50418 1.52989 6.62618 1.49961 6.75 1.5H11.25C11.3734 1.49999 11.495 1.53044 11.6038 1.58866C11.7127 1.64688 11.8055 1.73107 11.874 1.83375L13.1512 3.75H15.75C16.3467 3.75 16.919 3.98706 17.341 4.40901C17.7629 4.83097 18 5.40327 18 6V14.25C18 14.8467 17.7629 15.419 17.341 15.841C16.919 16.263 16.3467 16.5 15.75 16.5ZM2.25 5.25C2.05109 5.25 1.86032 5.32902 1.71967 5.46967C1.57902 5.61033 1.5 5.80109 1.5 6V14.25C1.5 14.4489 1.57902 14.6397 1.71967 14.7803C1.86032 14.921 2.05109 15 2.25 15H15.75C15.9489 15 16.1397 14.921 16.2803 14.7803C16.421 14.6397 16.5 14.4489 16.5 14.25V6C16.5 5.80109 16.421 5.61033 16.2803 5.46967C16.1397 5.32902 15.9489 5.25 15.75 5.25H12.75C12.6266 5.25002 12.505 5.21957 12.3962 5.16135C12.2873 5.10313 12.1945 5.01894 12.126 4.91625L10.8488 3H7.15125L5.87625 4.91625C5.80753 5.01926 5.71437 5.10365 5.6051 5.16188C5.49582 5.22012 5.37382 5.25039 5.25 5.25H2.25ZM9 13.5C8.25832 13.5 7.5333 13.2801 6.91661 12.868C6.29993 12.456 5.81928 11.8703 5.53545 11.1851C5.25162 10.4998 5.17736 9.74584 5.32206 9.01842C5.46675 8.29099 5.8239 7.6228 6.34835 7.09835C6.8728 6.57391 7.54098 6.21675 8.26841 6.07206C8.99584 5.92736 9.74984 6.00163 10.4351 6.28546C11.1203 6.56928 11.706 7.04993 12.118 7.66662C12.5301 8.2833 12.75 9.00832 12.75 9.75C12.7488 10.7442 12.3533 11.6973 11.6503 12.4003C10.9473 13.1033 9.9942 13.4988 9 13.5V13.5ZM9 7.5C8.55499 7.5 8.11998 7.63196 7.74997 7.8792C7.37996 8.12643 7.09157 8.47783 6.92127 8.88897C6.75097 9.3001 6.70642 9.7525 6.79323 10.189C6.88005 10.6254 7.09434 11.0263 7.40901 11.341C7.72368 11.6557 8.12459 11.87 8.56105 11.9568C8.9975 12.0436 9.4499 11.999 9.86104 11.8287C10.2722 11.6584 10.6236 11.37 10.8708 11C11.118 10.63 11.25 10.195 11.25 9.75C11.25 9.15327 11.0129 8.58097 10.591 8.15901C10.169 7.73706 9.59674 7.5 9 7.5Z" fill="#262628"/>
</svg>
