<svg width="24" height="24" viewBox="0 0 24 24" fill="none" xmlns="http://www.w3.org/2000/svg">
<path fill-rule="evenodd" clip-rule="evenodd" d="M2 3C2 2.45 2.45 2 3 2H10C10.55 2 11 2.45 11 3V10C11 10.55 10.55 11 10 11H3C2.45 11 2 10.55 2 10V3ZM4 4V9H9V4H4ZM13 3C13 2.45 13.45 2 14 2H21C21.55 2 22 2.45 22 3V10C22 10.55 21.55 11 21 11H14C13.45 11 13 10.55 13 10V3ZM15 4V9H20V4H15ZM13 14C13 13.45 13.45 13 14 13H21C21.55 13 22 13.45 22 14V21C22 21.55 21.55 22 21 22H14C13.45 22 13 21.55 13 21V14ZM15 15V20H20V15H15ZM2 14C2 13.45 2.45 13 3 13H10C10.55 13 11 13.45 11 14V21C11 21.55 10.55 22 10 22H3C2.45 22 2 21.55 2 21V14ZM4 15V20H9V15H4Z" fill="#262628"/>
</svg>
