<svg width="24" height="24" viewBox="0 0 24 24" fill="none" xmlns="http://www.w3.org/2000/svg">
<path fill-rule="evenodd" clip-rule="evenodd" d="M4.52 2.13397C4.67202 2.04621 4.84447 2 5.02 2C5.19554 2 5.36798 2.04621 5.52 2.13397L19.52 11.134C19.6604 11.2246 19.7757 11.349 19.8556 11.4957C19.9356 11.6425 19.9774 11.8069 19.9774 11.974C19.9774 12.1411 19.9356 12.3055 19.8556 12.4522C19.7757 12.5989 19.6604 12.7233 19.52 12.814L5.52 21.814C5.37227 21.9042 5.20364 21.9546 5.0306 21.9602C4.85756 21.9657 4.68604 21.9262 4.53284 21.8456C4.37963 21.765 4.24999 21.6459 4.15659 21.5002C4.06319 21.3544 4.00923 21.1869 4 21.014V3.01397C3.99951 2.83408 4.04756 2.65739 4.13907 2.50252C4.23059 2.34764 4.36219 2.22032 4.52 2.13397V2.13397ZM6 4.84397V19.184L17.15 12.014L6 4.84397Z" fill="#262628"/>
</svg>
