<svg width="24" height="24" viewBox="0 0 24 24" fill="none" xmlns="http://www.w3.org/2000/svg">
<path d="M12.0001 22.1996C11.7001 22.1996 11.5001 22.0996 11.3001 21.8996L2.5001 13.0996C1.3001 11.8996 0.600098 10.1996 0.600098 8.49961C0.600098 6.79961 1.3001 5.09961 2.5001 3.89961C3.7001 2.69961 5.3001 1.99961 7.1001 1.99961C8.8001 1.99961 10.5001 2.69961 11.7001 3.89961L12.0001 4.29961L12.4001 3.89961C13.0001 3.29961 13.7001 2.79961 14.5001 2.49961C16.1001 1.79961 17.9001 1.79961 19.5001 2.49961C20.3001 2.79961 21.0001 3.29961 21.6001 3.89961C22.2001 4.49961 22.6001 5.19961 23.0001 5.99961C23.3001 6.79961 23.5001 7.59961 23.5001 8.49961C23.5001 9.39961 23.3001 10.1996 23.0001 10.9996C22.7001 11.7996 22.2001 12.4996 21.6001 13.0996L12.8001 21.8996C12.5001 22.0996 12.3001 22.1996 12.0001 22.1996ZM7.1001 3.99961C5.8001 3.99961 4.7001 4.49961 3.9001 5.29961C3.1001 6.09961 2.6001 7.29961 2.6001 8.49961C2.6001 9.69961 3.1001 10.7996 3.9001 11.6996L12.0001 19.7996L20.1001 11.6996C20.5001 11.2996 20.8001 10.7996 21.1001 10.1996C21.3001 9.69961 21.4001 9.09961 21.4001 8.49961C21.4001 7.89961 21.3001 7.29961 21.1001 6.79961C20.9001 6.29961 20.5001 5.79961 20.1001 5.29961C19.7001 4.89961 19.2001 4.59961 18.6001 4.29961C17.5001 3.79961 16.3001 3.79961 15.2001 4.29961C14.7001 4.49961 14.2001 4.89961 13.7001 5.29961L12.6001 6.39961C12.2001 6.79961 11.6001 6.79961 11.2001 6.39961L10.1001 5.29961C9.4001 4.49961 8.3001 3.99961 7.1001 3.99961Z" fill="#262628"/>
</svg>
