<svg width="24" height="24" viewBox="0 0 24 24" fill="none" xmlns="http://www.w3.org/2000/svg">
<path d="M12.0001 15.0003C11.4067 15.0003 10.8267 14.8243 10.3334 14.4947C9.84002 14.165 9.45551 13.6965 9.22844 13.1483C9.00138 12.6001 8.94197 11.9969 9.05772 11.415C9.17348 10.833 9.4592 10.2985 9.87876 9.87894C10.2983 9.45938 10.8329 9.17366 11.4148 9.0579C11.9968 8.94215 12.6 9.00156 13.1481 9.22862C13.6963 9.45568 14.1648 9.8402 14.4945 10.3335C14.8241 10.8269 15.0001 11.4069 15.0001 12.0003C15.0001 12.7959 14.684 13.559 14.1214 14.1216C13.5588 14.6842 12.7957 15.0003 12.0001 15.0003ZM12.0001 11.0003C11.8023 11.0003 11.609 11.0589 11.4445 11.1688C11.2801 11.2787 11.1519 11.4348 11.0762 11.6176C11.0005 11.8003 10.9807 12.0014 11.0193 12.1953C11.0579 12.3893 11.1531 12.5675 11.293 12.7074C11.4328 12.8472 11.611 12.9425 11.805 12.981C11.999 13.0196 12.2 12.9998 12.3828 12.9241C12.5655 12.8484 12.7217 12.7203 12.8316 12.5558C12.9414 12.3914 13.0001 12.198 13.0001 12.0003C13.0001 11.735 12.8947 11.4807 12.7072 11.2932C12.5197 11.1056 12.2653 11.0003 12.0001 11.0003ZM19.0691 20.0693C18.8713 20.0692 18.678 20.0105 18.5136 19.9007C18.3492 19.7908 18.2211 19.6346 18.1454 19.4519C18.0697 19.2692 18.0499 19.0682 18.0885 18.8742C18.1271 18.6803 18.2223 18.5021 18.3621 18.3623C20.049 16.6745 20.9967 14.386 20.9967 11.9998C20.9967 9.61352 20.049 7.32497 18.3621 5.63726C18.1799 5.44865 18.0791 5.19605 18.0814 4.93386C18.0837 4.67166 18.1889 4.42085 18.3743 4.23544C18.5597 4.05003 18.8105 3.94486 19.0727 3.94258C19.3349 3.9403 19.5875 4.0411 19.7761 4.22326C21.838 6.28602 22.9962 9.0832 22.9962 11.9998C22.9962 14.9163 21.838 17.7135 19.7761 19.7763C19.6835 19.8694 19.5733 19.9433 19.4519 19.9936C19.3306 20.0439 19.2004 20.0696 19.0691 20.0693V20.0693ZM4.93008 20.0693C4.79871 20.0696 4.66858 20.0439 4.54722 19.9936C4.42586 19.9433 4.31569 19.8694 4.22308 19.7763C2.1612 17.7135 1.00293 14.9163 1.00293 11.9998C1.00293 9.0832 2.1612 6.28602 4.22308 4.22326C4.31533 4.12775 4.42567 4.05156 4.54768 3.99916C4.66968 3.94675 4.8009 3.91916 4.93368 3.91801C5.06646 3.91685 5.19814 3.94215 5.32103 3.99244C5.44393 4.04272 5.55558 4.11697 5.64948 4.21086C5.74337 4.30475 5.81762 4.41641 5.8679 4.5393C5.91818 4.6622 5.94349 4.79388 5.94233 4.92666C5.94118 5.05944 5.91359 5.19066 5.86118 5.31266C5.80877 5.43467 5.73259 5.54501 5.63708 5.63726C3.95015 7.32497 3.0025 9.61352 3.0025 11.9998C3.0025 14.386 3.95015 16.6745 5.63708 18.3623C5.77689 18.5021 5.8721 18.6803 5.91066 18.8742C5.94923 19.0682 5.92943 19.2692 5.85376 19.4519C5.77809 19.6346 5.64995 19.7908 5.48554 19.9007C5.32113 20.0105 5.12783 20.0692 4.93008 20.0693V20.0693ZM16.2401 17.2503C16.0423 17.2502 15.849 17.1915 15.6846 17.0817C15.5202 16.9718 15.3921 16.8156 15.3164 16.6329C15.2407 16.4502 15.2209 16.2492 15.2595 16.0552C15.2981 15.8613 15.3933 15.6831 15.5331 15.5433C15.9981 15.0789 16.367 14.5274 16.6187 13.9203C16.8705 13.3132 17 12.6625 17 12.0053C17 11.3481 16.8705 10.6973 16.6187 10.0902C16.367 9.48315 15.9981 8.93164 15.5331 8.46726C15.3454 8.27975 15.24 8.02538 15.2399 7.76011C15.2398 7.49484 15.3451 7.2404 15.5326 7.05276C15.7201 6.86512 15.9745 6.75965 16.2397 6.75955C16.505 6.75946 16.7594 6.86475 16.9471 7.05226C17.5979 7.70237 18.1142 8.47439 18.4665 9.32417C18.8188 10.174 19.0001 11.0848 19.0001 12.0048C19.0001 12.9247 18.8188 13.8356 18.4665 14.6853C18.1142 15.5351 17.5979 16.3071 16.9471 16.9573C16.7596 17.1448 16.5053 17.2502 16.2401 17.2503V17.2503ZM7.76008 17.2393C7.49503 17.2395 7.24074 17.1344 7.05308 16.9473C6.40299 16.2972 5.88731 15.5255 5.53549 14.6762C5.18366 13.8269 5.00258 12.9166 5.00258 11.9973C5.00258 11.0779 5.18366 10.1676 5.53549 9.31831C5.88731 8.46898 6.40299 7.69728 7.05308 7.04726C7.24335 6.87668 7.4917 6.78542 7.74715 6.7922C8.0026 6.79898 8.24576 6.9033 8.42671 7.08374C8.60766 7.26418 8.71266 7.50704 8.72017 7.76247C8.72768 8.01789 8.63712 8.2665 8.46708 8.45726C8.00235 8.9216 7.63368 9.47298 7.38215 10.0799C7.13061 10.6868 7.00115 11.3373 7.00115 11.9943C7.00115 12.6512 7.13061 13.3017 7.38215 13.9086C7.63368 14.5155 8.00235 15.0669 8.46708 15.5313C8.60717 15.671 8.70266 15.8492 8.74146 16.0432C8.78025 16.2372 8.76062 16.4384 8.68503 16.6213C8.60944 16.8041 8.48131 16.9605 8.31683 17.0705C8.15236 17.1805 7.95895 17.2392 7.76108 17.2393H7.76008Z" fill="#262628"/>
</svg>
