<svg width="24" height="24" viewBox="0 0 24 24" fill="none" xmlns="http://www.w3.org/2000/svg">
<path d="M20 22C19.7348 22 19.4804 21.8946 19.2929 21.7071C19.1054 21.5196 19 21.2652 19 21V19C19 18.2044 18.6839 17.4413 18.1213 16.8787C17.5587 16.3161 16.7956 16 16 16H8C7.60577 15.9991 7.21526 16.0763 6.85104 16.2272C6.48682 16.378 6.1561 16.5996 5.878 16.879C5.31775 17.443 5.0023 18.205 5 19V21C5 21.2652 4.89464 21.5196 4.70711 21.7071C4.51957 21.8946 4.26522 22 4 22C3.73478 22 3.48043 21.8946 3.29289 21.7071C3.10536 21.5196 3 21.2652 3 21V19C3 17.6739 3.52678 16.4021 4.46447 15.4645C5.40215 14.5268 6.67392 14 8 14H16C17.3261 14 18.5979 14.5268 19.5355 15.4645C20.4732 16.4021 21 17.6739 21 19V21C21 21.2652 20.8946 21.5196 20.7071 21.7071C20.5196 21.8946 20.2652 22 20 22ZM17 7C17 6.0111 16.7068 5.0444 16.1573 4.22215C15.6079 3.39991 14.827 2.75904 13.9134 2.3806C12.9998 2.00217 11.9945 1.90315 11.0245 2.09608C10.0546 2.289 9.16373 2.76521 8.46447 3.46447C7.7652 4.16373 7.289 5.05465 7.09607 6.02455C6.90315 6.99446 7.00216 7.99979 7.3806 8.91342C7.75904 9.82705 8.3999 10.6079 9.22215 11.1573C10.0444 11.7068 11.0111 12 12 12C13.3256 11.9984 14.5964 11.4711 15.5338 10.5338C16.4711 9.59644 16.9984 8.3256 17 7V7ZM15 7C15 7.59335 14.8241 8.17337 14.4944 8.66671C14.1648 9.16006 13.6962 9.54458 13.1481 9.77164C12.5999 9.9987 11.9967 10.0581 11.4147 9.94236C10.8328 9.8266 10.2982 9.54088 9.87868 9.12132C9.45912 8.70177 9.1734 8.16722 9.05764 7.58527C8.94189 7.00333 9.0013 6.40013 9.22836 5.85195C9.45542 5.30377 9.83994 4.83524 10.3333 4.50559C10.8266 4.17595 11.4067 4 12 4C12.7956 4 13.5587 4.31607 14.1213 4.87868C14.6839 5.44129 15 6.20435 15 7V7Z" fill="#262628"/>
</svg>
