<svg width="32" height="32" viewBox="0 0 32 32" fill="none" xmlns="http://www.w3.org/2000/svg">
<path fill-rule="evenodd" clip-rule="evenodd" d="M6.66666 5.33329C6.31303 5.33329 5.9739 5.47377 5.72385 5.72382C5.4738 5.97387 5.33332 6.313 5.33332 6.66663V24.7866L8.38666 21.72C8.51124 21.5964 8.659 21.4986 8.82145 21.4323C8.9839 21.3659 9.15785 21.3323 9.33332 21.3333H25.3333C25.6869 21.3333 26.0261 21.1928 26.2761 20.9428C26.5262 20.6927 26.6667 20.3536 26.6667 20V6.66663C26.6667 6.313 26.5262 5.97387 26.2761 5.72382C26.0261 5.47377 25.6869 5.33329 25.3333 5.33329H6.66666ZM3.83999 3.83996C4.58942 3.0896 5.60615 2.66756 6.66666 2.66663H25.3333C26.3942 2.66663 27.4116 3.08805 28.1618 3.8382C28.9119 4.58834 29.3333 5.60576 29.3333 6.66663V20C29.3333 21.0608 28.9119 22.0782 28.1618 22.8284C27.4116 23.5785 26.3942 24 25.3333 24H9.87999L4.94666 28.9466C4.75916 29.1316 4.52106 29.257 4.26241 29.3068C4.00376 29.3566 3.73614 29.3287 3.49332 29.2266C3.24983 29.1266 3.0414 28.9567 2.89428 28.7384C2.74717 28.5201 2.66797 28.2632 2.66666 28V6.66663C2.66759 5.60612 3.08963 4.58939 3.83999 3.83996V3.83996Z" fill="#262628"/>
</svg>
