<svg width="24" height="24" viewBox="0 0 24 24" fill="none" xmlns="http://www.w3.org/2000/svg">
<path fill-rule="evenodd" clip-rule="evenodd" d="M5 4C4.73478 4 4.48043 4.10536 4.29289 4.29289C4.10536 4.48043 4 4.73478 4 5V18.59L6.29 16.29C6.38344 16.1973 6.49426 16.124 6.61609 16.0742C6.73793 16.0245 6.86839 15.9992 7 16H19C19.2652 16 19.5196 15.8946 19.7071 15.7071C19.8946 15.5196 20 15.2652 20 15V5C20 4.73478 19.8946 4.48043 19.7071 4.29289C19.5196 4.10536 19.2652 4 19 4H5ZM2.88 2.88C3.44207 2.31723 4.20462 2.0007 5 2H19C19.7957 2 20.5587 2.31607 21.1213 2.87868C21.6839 3.44129 22 4.20435 22 5V15C22 15.7957 21.6839 16.5587 21.1213 17.1213C20.5587 17.6839 19.7957 18 19 18H7.41L3.71 21.71C3.56938 21.8488 3.3908 21.9428 3.19681 21.9801C3.00282 22.0175 2.80211 21.9966 2.62 21.92C2.43738 21.845 2.28105 21.7176 2.17072 21.5539C2.06039 21.3901 2.00099 21.1974 2 21V5C2.0007 4.20462 2.31723 3.44207 2.88 2.88V2.88Z" fill="#262628"/>
</svg>
