<svg width="32" height="32" viewBox="0 0 32 32" fill="none" xmlns="http://www.w3.org/2000/svg">
<path d="M16.0001 29.5995C15.6001 29.5995 15.3335 29.4661 15.0668 29.1995L3.33347 17.4661C1.73347 15.8661 0.80014 13.5995 0.80014 11.3328C0.80014 9.06615 1.73347 6.79948 3.33347 5.19948C4.93347 3.59948 7.06681 2.66615 9.46681 2.66615C11.7335 2.66615 14.0001 3.59948 15.6001 5.19948L16.0001 5.73281L16.5335 5.19948C17.3335 4.39948 18.2668 3.73281 19.3335 3.33281C21.4668 2.39948 23.8668 2.39948 26.0001 3.33281C27.0668 3.73281 28.0001 4.39948 28.8001 5.19948C29.6001 5.99948 30.1335 6.93281 30.6668 7.99948C31.0668 9.06615 31.3335 10.1328 31.3335 11.3328C31.3335 12.5328 31.0668 13.5995 30.6668 14.6661C30.2668 15.7328 29.6001 16.6661 28.8001 17.4661L17.0668 29.1995C16.6668 29.4661 16.4001 29.5995 16.0001 29.5995ZM9.46681 5.33281C7.73347 5.33281 6.26681 5.99948 5.20014 7.06615C4.13347 8.13281 3.46681 9.73281 3.46681 11.3328C3.46681 12.9328 4.13347 14.3995 5.20014 15.5995L16.0001 26.3995L26.8001 15.5995C27.3335 15.0661 27.7335 14.3995 28.1335 13.5995C28.4001 12.9328 28.5335 12.1328 28.5335 11.3328C28.5335 10.5328 28.4001 9.73281 28.1335 9.06615C27.8668 8.39948 27.3335 7.73281 26.8001 7.06615C26.2668 6.53281 25.6001 6.13281 24.8001 5.73281C23.3335 5.06615 21.7335 5.06615 20.2668 5.73281C19.6001 5.99948 18.9335 6.53281 18.2668 7.06615L16.8001 8.53281C16.2668 9.06615 15.4668 9.06615 14.9335 8.53281L13.4668 7.06615C12.5335 5.99948 11.0668 5.33281 9.46681 5.33281Z" fill="#262628"/>
</svg>
